<svg xmlns="http://www.w3.org/2000/svg" width="1200" height="800" viewBox="0 0 1200 800"><defs><clipPath id="c1"><path d="M276 110C276 113.4 282.9 116.8 283.5 120.3C284.1 123.8 282.9 127.9 279.5 131C276 134.1 269.6 137 263 139C256.4 140.9 246 140.7 239.9 142.8C233.7 145 232 149.5 226.1 151.9C220.2 154.2 212.2 156.3 204.6 157.1C196.9 157.9 187.7 157.5 180 156.5C172.3 155.4 166.3 151.7 158.6 150.9C151 150.2 141.8 152.4 133.9 151.9C126 151.3 117.3 149.9 111.2 147.8C105 145.6 99.9 142.2 97 139C94 135.7 96.9 131.3 93.5 128.2C90.1 125.1 80.5 123.4 76.5 120.3C72.5 117.3 69.6 113.4 69.6 110C69.6 106.6 72.5 102.7 76.5 99.7C80.5 96.6 90.1 94.9 93.5 91.8C96.9 88.7 94 84.3 97 81C99.9 77.8 105 74.4 111.2 72.2C117.3 70.1 126 68.7 133.9 68.1C141.8 67.6 151 69.8 158.6 69.1C166.3 68.3 172.3 64.6 180 63.5C187.7 62.5 196.9 62.1 204.6 62.9C212.2 63.7 220.2 65.8 226.1 68.1C232 70.5 233.7 75 239.9 77.2C246 79.3 256.4 79.1 263 81C269.6 83 276 85.9 279.5 89C282.9 92.1 284.1 96.2 283.5 99.7C282.9 103.2 276 106.6 276 110Z"/></clipPath><clipPath id="c2"><path d="M836.8 80C836.8 82.8 842.4 85.5 842.8 88.3C843.3 91.1 842.3 94.3 839.6 96.8C836.8 99.2 831.7 101.6 826.4 103.2C821.1 104.8 812.8 104.6 807.9 106.3C803 108 801.6 111.6 796.9 113.5C792.2 115.4 785.8 117.1 779.7 117.7C773.5 118.3 766.1 118 760 117.2C753.9 116.3 749.1 113.4 742.9 112.8C736.8 112.1 729.5 113.9 723.1 113.5C716.8 113.1 709.9 111.9 704.9 110.2C700 108.5 695.9 105.8 693.6 103.2C691.2 100.6 693.5 97.1 690.8 94.6C688.1 92.1 680.4 90.7 677.2 88.3C674 85.8 671.7 82.8 671.7 80C671.7 77.2 674 74.2 677.2 71.7C680.4 69.3 688.1 67.9 690.8 65.4C693.5 62.9 691.2 59.4 693.6 56.8C695.9 54.2 700 51.5 704.9 49.8C709.9 48.1 716.8 46.9 723.1 46.5C729.5 46.1 736.8 47.9 742.9 47.2C749.1 46.6 753.9 43.7 760 42.8C766.1 42 773.5 41.7 779.7 42.3C785.8 42.9 792.2 44.6 796.9 46.5C801.6 48.4 803 52 807.9 53.7C812.8 55.4 821.1 55.2 826.4 56.8C831.7 58.4 836.8 60.8 839.6 63.2C842.3 65.7 843.3 68.9 842.8 71.7C842.4 74.5 836.8 77.2 836.8 80Z"/></clipPath><clipPath id="c3"><path d="M1107.2 150C1107.2 152.4 1112.1 154.8 1112.5 157.2C1112.9 159.7 1112 162.5 1109.6 164.7C1107.2 166.8 1102.7 168.9 1098.1 170.3C1093.5 171.7 1086.2 171.5 1081.9 173C1077.6 174.5 1076.4 177.6 1072.2 179.3C1068.1 181 1062.6 182.4 1057.2 183C1051.8 183.5 1045.4 183.2 1040 182.5C1034.6 181.8 1030.4 179.2 1025 178.7C1019.7 178.1 1013.3 179.7 1007.8 179.3C1002.2 178.9 996.1 177.9 991.8 176.4C987.5 174.9 983.9 172.6 981.9 170.3C979.8 168 981.8 164.9 979.5 162.8C977.1 160.6 970.3 159.4 967.5 157.2C964.7 155.1 962.7 152.4 962.7 150C962.7 147.6 964.7 144.9 967.5 142.8C970.3 140.6 977.1 139.4 979.5 137.2C981.8 135.1 979.8 132 981.9 129.7C983.9 127.4 987.5 125.1 991.8 123.6C996.1 122.1 1002.2 121.1 1007.8 120.7C1013.3 120.3 1019.7 121.9 1025 121.3C1030.4 120.8 1034.6 118.2 1040 117.5C1045.4 116.8 1051.8 116.5 1057.2 117C1062.6 117.6 1068.1 119 1072.2 120.7C1076.4 122.4 1077.6 125.5 1081.9 127C1086.2 128.5 1093.5 128.3 1098.1 129.7C1102.7 131.1 1107.2 133.2 1109.6 135.3C1112 137.5 1112.9 140.3 1112.5 142.8C1112.1 145.2 1107.2 147.6 1107.2 150Z"/></clipPath><clipPath id="c4"><path d="M-20 500C33.3 441.7 180 471.7 300 470C420 468.3 546.7 491.7 700 490C853.3 488.3 1133.3 405 1220 460C1306.7 515 1426.7 760 1220 820C1013.3 880 186.7 873.3 -20 820C-226.7 766.7 -73.3 558.3 -20 500Z"/></clipPath><clipPath id="c5"><path d="M520 500C556.7 446.3 560 444.7 600 498C640 551.3 796.7 766.3 760 820C723.3 873.7 420 873.3 380 820C340 766.7 483.3 553.7 520 500Z"/></clipPath><clipPath id="c6"><path d="M130 560C118.3 535 147 463.3 150 420C153 376.7 141.3 320 148 300C154.7 280 182 278.3 190 300C198 321.7 191 385 196 430C201 475 231 548.3 220 570C209 591.7 141.7 585 130 560Z"/></clipPath><clipPath id="c7"><path d="M325.9 220C331.9 231.6 328.3 250.3 317.5 259.7C306.6 269 272.3 266.3 260.7 276.3C249.2 286.3 258.5 310.1 247.9 319.8C237.4 329.4 213.7 336.5 197.2 334.2C180.8 332 167 308.6 149.4 306.2C131.9 303.8 108.7 321.7 92.1 319.8C75.5 317.8 55.4 306.2 49.8 294.6C44.2 282.9 64.6 262.4 58.7 249.9C52.7 237.5 20.1 231.6 14.1 220C8.1 208.4 11.7 189.7 22.5 180.3C33.4 171 67.7 173.7 79.3 163.7C90.8 153.7 81.5 129.9 92.1 120.2C102.6 110.6 126.3 103.5 142.8 105.8C159.2 108 173 131.4 190.6 133.8C208.1 136.2 231.3 118.3 247.9 120.2C264.5 122.2 284.6 133.8 290.2 145.4C295.8 157.1 275.4 177.6 281.3 190.1C287.3 202.5 319.9 208.4 325.9 220Z"/></clipPath><clipPath id="c8"><path d="M790 470L1110 470L1110 500L790 500Z"/></clipPath><clipPath id="c9"><path d="M790 515L1110 515L1110 545L790 545Z"/></clipPath><clipPath id="c10"><path d="M880 220C912.7 204.7 1046 200.7 1080 214C1114 227.3 1116.7 284.7 1084 300C1051.3 315.3 918 319.3 884 306C850 292.7 847.3 235.3 880 220Z"/></clipPath><clipPath id="c11"><path d="M462 560C457 536.7 431 536.7 424 560C417 583.3 415 676.7 420 700C425 723.3 447 723.3 454 700C461 676.7 467 583.3 462 560Z"/></clipPath><clipPath id="c12"><path d="M458 696C450.7 689.3 426.3 691.7 416 696C405.7 700.3 397 715.3 396 722C395 728.7 399.3 733.7 410 736C420.7 738.3 452 742.7 460 736C468 729.3 465.3 702.7 458 696Z"/></clipPath><clipPath id="c13"><path d="M478 560C483 536.7 509 536.7 516 560C523 583.3 525 676.7 520 700C515 723.3 493 723.3 486 700C479 676.7 473 583.3 478 560Z"/></clipPath><clipPath id="c14"><path d="M482 696C489.3 689.3 513.7 691.7 524 696C534.3 700.3 543 715.3 544 722C545 728.7 540.7 733.7 530 736C519.3 738.3 488 742.7 480 736C472 729.3 474.7 702.7 482 696Z"/></clipPath><clipPath id="c15"><path d="M408 420C399.7 447.7 378 545 400 570C422 595 518 595 540 570C562 545 540.3 447.7 532 420C523.7 392.3 503.7 406.7 490 404C476.3 401.3 463.7 401.3 450 404C436.3 406.7 416.3 392.3 408 420Z"/></clipPath><clipPath id="c16"><path d="M526 428C535.7 423.3 563.3 390 574 372C584.7 354 591 330 590 320C589 310 574.7 305 568 312C561.3 319 558.7 347.3 550 362C541.3 376.7 520 389 516 400C512 411 516.3 432.7 526 428Z"/></clipPath><clipPath id="c17"><path d="M724 200C724 204 722.8 208.5 720.8 212C718.8 215.5 715.5 218.8 712 220.8C708.5 222.8 704 224 700 224C696 224 691.5 222.8 688 220.8C684.5 218.8 681.2 215.5 679.2 212C677.2 208.5 676 204 676 200C676 196 677.2 191.5 679.2 188C681.2 184.5 684.5 181.2 688 179.2C691.5 177.2 696 176 700 176C704 176 708.5 177.2 712 179.2C715.5 181.2 718.8 184.5 720.8 188C722.8 191.5 724 196 724 200Z"/></clipPath><clipPath id="c18"><path d="M548 330C548 340.5 545.9 351.7 542.1 361.4C538.3 371 532.2 380.6 525.2 388C518.1 395.4 509 401.8 499.8 405.8C490.7 409.8 479.9 412 470 412C460.1 412 449.3 409.8 440.2 405.8C431 401.8 421.9 395.4 414.8 388C407.8 380.6 401.7 371 397.9 361.4C394.1 351.7 392 340.5 392 330C392 319.5 394.1 308.3 397.9 298.6C401.7 289 407.8 279.4 414.8 272C421.9 264.6 431 258.2 440.2 254.2C449.3 250.2 460.1 248 470 248C479.9 248 490.7 250.2 499.8 254.2C509 258.2 518.1 264.6 525.2 272C532.2 279.4 538.3 289 542.1 298.6C545.9 308.3 548 319.5 548 330Z"/></clipPath><clipPath id="c19"><path d="M388 320C381 317.7 374.3 281.3 378 270C381.7 258.7 406.3 259.3 410 252C413.7 244.7 395 228.7 400 226C405 223.3 433 239.3 440 236C447 232.7 436 207 442 206C448 205 468 231 476 230C484 229 484.3 199 490 200C495.7 201 501 232.3 510 236C519 239.7 539 218.7 544 222C549 225.3 536.3 248 540 256C543.7 264 564 260 566 270C568 280 559.7 314 552 316C544.3 318 533.7 289.7 520 282C506.3 274.3 486.7 269.7 470 270C453.3 270.3 433.7 275.7 420 284C406.3 292.3 395 322.3 388 320Z"/></clipPath><clipPath id="c20"><path d="M436 378C436 380.3 458.7 400 470 400C481.3 400 504 380.3 504 378C504 375.7 481.3 386 470 386C458.7 386 436 375.7 436 378Z"/></clipPath><clipPath id="c21"><path d="M700 620C700 606 710 588.3 730 580C750 571.7 796.7 568.3 820 570C843.3 571.7 860 578.3 870 590C880 601.7 886.7 627.7 880 640C873.3 652.3 855 660 830 664C805 668 751.7 671.3 730 664C708.3 656.7 700 634 700 620Z"/></clipPath><clipPath id="c22"><path d="M850 560C844 548.3 845.7 518.7 854 506C862.3 493.3 882.3 485 900 484C917.7 483 948 492.3 960 500C972 507.7 975.3 520 972 530C968.7 540 953.7 552.3 940 560C926.3 567.7 905 576 890 576C875 576 856 571.7 850 560Z"/></clipPath></defs>
<rect x="0" y="0" width="1200" height="800" fill="#7fc8ef"/>
<path d="M276 110C276 113.4 282.9 116.8 283.5 120.3C284.1 123.8 282.9 127.9 279.5 131C276 134.1 269.6 137 263 139C256.4 140.9 246 140.7 239.9 142.8C233.7 145 232 149.5 226.1 151.9C220.2 154.2 212.2 156.3 204.6 157.1C196.9 157.9 187.7 157.5 180 156.5C172.3 155.4 166.3 151.7 158.6 150.9C151 150.2 141.8 152.4 133.9 151.9C126 151.3 117.3 149.9 111.2 147.8C105 145.6 99.9 142.2 97 139C94 135.7 96.9 131.3 93.5 128.2C90.1 125.1 80.5 123.4 76.5 120.3C72.5 117.3 69.6 113.4 69.6 110C69.6 106.6 72.5 102.7 76.5 99.7C80.5 96.6 90.1 94.9 93.5 91.8C96.9 88.7 94 84.3 97 81C99.9 77.8 105 74.4 111.2 72.2C117.3 70.1 126 68.7 133.9 68.1C141.8 67.6 151 69.8 158.6 69.1C166.3 68.3 172.3 64.6 180 63.5C187.7 62.5 196.9 62.1 204.6 62.9C212.2 63.7 220.2 65.8 226.1 68.1C232 70.5 233.7 75 239.9 77.2C246 79.3 256.4 79.1 263 81C269.6 83 276 85.9 279.5 89C282.9 92.1 284.1 96.2 283.5 99.7C282.9 103.2 276 106.6 276 110Z" fill="#ffffff"/>
<g clip-path="url(#c1)"><path d="M60 120L300 120L300 190L60 190Z" fill="#dceef8"/></g>
<path d="M276 110C276 113.4 282.9 116.8 283.5 120.3C284.1 123.8 282.9 127.9 279.5 131C276 134.1 269.6 137 263 139C256.4 140.9 246 140.7 239.9 142.8C233.7 145 232 149.5 226.1 151.9C220.2 154.2 212.2 156.3 204.6 157.1C196.9 157.9 187.7 157.5 180 156.5C172.3 155.4 166.3 151.7 158.6 150.9C151 150.2 141.8 152.4 133.9 151.9C126 151.3 117.3 149.9 111.2 147.8C105 145.6 99.9 142.2 97 139C94 135.7 96.9 131.3 93.5 128.2C90.1 125.1 80.5 123.4 76.5 120.3C72.5 117.3 69.6 113.4 69.6 110C69.6 106.6 72.5 102.7 76.5 99.7C80.5 96.6 90.1 94.9 93.5 91.8C96.9 88.7 94 84.3 97 81C99.9 77.8 105 74.4 111.2 72.2C117.3 70.1 126 68.7 133.9 68.1C141.8 67.6 151 69.8 158.6 69.1C166.3 68.3 172.3 64.6 180 63.5C187.7 62.5 196.9 62.1 204.6 62.9C212.2 63.7 220.2 65.8 226.1 68.1C232 70.5 233.7 75 239.9 77.2C246 79.3 256.4 79.1 263 81C269.6 83 276 85.9 279.5 89C282.9 92.1 284.1 96.2 283.5 99.7C282.9 103.2 276 106.6 276 110Z" fill="none" stroke="#17171b" stroke-width="6" stroke-linejoin="round"/>
<path d="M836.8 80C836.8 82.8 842.4 85.5 842.8 88.3C843.3 91.1 842.3 94.3 839.6 96.8C836.8 99.2 831.7 101.6 826.4 103.2C821.1 104.8 812.8 104.6 807.9 106.3C803 108 801.6 111.6 796.9 113.5C792.2 115.4 785.8 117.1 779.7 117.7C773.5 118.3 766.1 118 760 117.2C753.9 116.3 749.1 113.4 742.9 112.8C736.8 112.1 729.5 113.9 723.1 113.5C716.8 113.1 709.9 111.9 704.9 110.2C700 108.5 695.9 105.8 693.6 103.2C691.2 100.6 693.5 97.1 690.8 94.6C688.1 92.1 680.4 90.7 677.2 88.3C674 85.8 671.7 82.8 671.7 80C671.7 77.2 674 74.2 677.2 71.7C680.4 69.3 688.1 67.9 690.8 65.4C693.5 62.9 691.2 59.4 693.6 56.8C695.9 54.2 700 51.5 704.9 49.8C709.9 48.1 716.8 46.9 723.1 46.5C729.5 46.1 736.8 47.9 742.9 47.2C749.1 46.6 753.9 43.7 760 42.8C766.1 42 773.5 41.7 779.7 42.3C785.8 42.9 792.2 44.6 796.9 46.5C801.6 48.4 803 52 807.9 53.7C812.8 55.4 821.1 55.2 826.4 56.8C831.7 58.4 836.8 60.8 839.6 63.2C842.3 65.7 843.3 68.9 842.8 71.7C842.4 74.5 836.8 77.2 836.8 80Z" fill="#ffffff"/>
<g clip-path="url(#c2)"><path d="M664 88L856 88L856 144L664 144Z" fill="#dceef8"/></g>
<path d="M836.8 80C836.8 82.8 842.4 85.5 842.8 88.3C843.3 91.1 842.3 94.3 839.6 96.8C836.8 99.2 831.7 101.6 826.4 103.2C821.1 104.8 812.8 104.6 807.9 106.3C803 108 801.6 111.6 796.9 113.5C792.2 115.4 785.8 117.1 779.7 117.7C773.5 118.3 766.1 118 760 117.2C753.9 116.3 749.1 113.4 742.9 112.8C736.8 112.1 729.5 113.9 723.1 113.5C716.8 113.1 709.9 111.9 704.9 110.2C700 108.5 695.9 105.8 693.6 103.2C691.2 100.6 693.5 97.1 690.8 94.6C688.1 92.1 680.4 90.7 677.2 88.3C674 85.8 671.7 82.8 671.7 80C671.7 77.2 674 74.2 677.2 71.7C680.4 69.3 688.1 67.9 690.8 65.4C693.5 62.9 691.2 59.4 693.6 56.8C695.9 54.2 700 51.5 704.9 49.8C709.9 48.1 716.8 46.9 723.1 46.5C729.5 46.1 736.8 47.9 742.9 47.2C749.1 46.6 753.9 43.7 760 42.8C766.1 42 773.5 41.7 779.7 42.3C785.8 42.9 792.2 44.6 796.9 46.5C801.6 48.4 803 52 807.9 53.7C812.8 55.4 821.1 55.2 826.4 56.8C831.7 58.4 836.8 60.8 839.6 63.2C842.3 65.7 843.3 68.9 842.8 71.7C842.4 74.5 836.8 77.2 836.8 80Z" fill="none" stroke="#17171b" stroke-width="6" stroke-linejoin="round"/>
<path d="M1107.2 150C1107.2 152.4 1112.1 154.8 1112.5 157.2C1112.9 159.7 1112 162.5 1109.6 164.7C1107.2 166.8 1102.7 168.9 1098.1 170.3C1093.5 171.7 1086.2 171.5 1081.9 173C1077.6 174.5 1076.4 177.6 1072.2 179.3C1068.1 181 1062.6 182.4 1057.2 183C1051.8 183.5 1045.4 183.2 1040 182.5C1034.6 181.8 1030.4 179.2 1025 178.7C1019.7 178.1 1013.3 179.7 1007.8 179.3C1002.2 178.9 996.1 177.9 991.8 176.4C987.5 174.9 983.9 172.6 981.9 170.3C979.8 168 981.8 164.9 979.5 162.8C977.1 160.6 970.3 159.4 967.5 157.2C964.7 155.1 962.7 152.4 962.7 150C962.7 147.6 964.7 144.9 967.5 142.8C970.3 140.6 977.1 139.4 979.5 137.2C981.8 135.1 979.8 132 981.9 129.7C983.9 127.4 987.5 125.1 991.8 123.6C996.1 122.1 1002.2 121.1 1007.8 120.7C1013.3 120.3 1019.7 121.9 1025 121.3C1030.4 120.8 1034.6 118.2 1040 117.5C1045.4 116.8 1051.8 116.5 1057.2 117C1062.6 117.6 1068.1 119 1072.2 120.7C1076.4 122.4 1077.6 125.5 1081.9 127C1086.2 128.5 1093.5 128.3 1098.1 129.7C1102.7 131.1 1107.2 133.2 1109.6 135.3C1112 137.5 1112.9 140.3 1112.5 142.8C1112.1 145.2 1107.2 147.6 1107.2 150Z" fill="#ffffff"/>
<g clip-path="url(#c3)"><path d="M956 157L1124 157L1124 206L956 206Z" fill="#dceef8"/></g>
<path d="M1107.2 150C1107.2 152.4 1112.1 154.8 1112.5 157.2C1112.9 159.7 1112 162.5 1109.6 164.7C1107.2 166.8 1102.7 168.9 1098.1 170.3C1093.5 171.7 1086.2 171.5 1081.9 173C1077.6 174.5 1076.4 177.6 1072.2 179.3C1068.1 181 1062.6 182.4 1057.2 183C1051.8 183.5 1045.4 183.2 1040 182.5C1034.6 181.8 1030.4 179.2 1025 178.7C1019.7 178.1 1013.3 179.7 1007.8 179.3C1002.2 178.9 996.1 177.9 991.8 176.4C987.5 174.9 983.9 172.6 981.9 170.3C979.8 168 981.8 164.9 979.5 162.8C977.1 160.6 970.3 159.4 967.5 157.2C964.7 155.1 962.7 152.4 962.7 150C962.7 147.6 964.7 144.9 967.5 142.8C970.3 140.6 977.1 139.4 979.5 137.2C981.8 135.1 979.8 132 981.9 129.7C983.9 127.4 987.5 125.1 991.8 123.6C996.1 122.1 1002.2 121.1 1007.8 120.7C1013.3 120.3 1019.7 121.9 1025 121.3C1030.4 120.8 1034.6 118.2 1040 117.5C1045.4 116.8 1051.8 116.5 1057.2 117C1062.6 117.6 1068.1 119 1072.2 120.7C1076.4 122.4 1077.6 125.5 1081.9 127C1086.2 128.5 1093.5 128.3 1098.1 129.7C1102.7 131.1 1107.2 133.2 1109.6 135.3C1112 137.5 1112.9 140.3 1112.5 142.8C1112.1 145.2 1107.2 147.6 1107.2 150Z" fill="none" stroke="#17171b" stroke-width="6" stroke-linejoin="round"/>
<path d="M-20 470C16.7 446.7 126.7 388.3 200 380C273.3 371.7 346.7 423.3 420 420C493.3 416.7 560 361.7 640 360C720 358.3 803.3 408.3 900 410C996.7 411.7 1166.7 351.7 1220 370C1273.3 388.3 1426.7 495 1220 520C1013.3 545 186.7 528.3 -20 520C-226.7 511.7 -56.7 493.3 -20 470Z" fill="#9bd77c"/>
<path d="M-20 470C16.7 446.7 126.7 388.3 200 380C273.3 371.7 346.7 423.3 420 420C493.3 416.7 560 361.7 640 360C720 358.3 803.3 408.3 900 410C996.7 411.7 1166.7 351.7 1220 370C1273.3 388.3 1426.7 495 1220 520C1013.3 545 186.7 528.3 -20 520C-226.7 511.7 -56.7 493.3 -20 470Z" fill="none" stroke="#17171b" stroke-width="6" stroke-linejoin="round"/>
<path d="M-20 500C33.3 441.7 180 471.7 300 470C420 468.3 546.7 491.7 700 490C853.3 488.3 1133.3 405 1220 460C1306.7 515 1426.7 760 1220 820C1013.3 880 186.7 873.3 -20 820C-226.7 766.7 -73.3 558.3 -20 500Z" fill="#6cc04a"/>
<g clip-path="url(#c4)"><path d="M-20 650C50 616.7 263.3 615 400 620C536.7 625 663.3 676.7 800 680C936.7 683.3 1150 616.7 1220 640C1290 663.3 1426.7 790 1220 820C1013.3 850 186.7 848.3 -20 820C-226.7 791.7 -90 683.3 -20 650Z" fill="#4f9e34"/></g>
<path d="M-20 500C33.3 441.7 180 471.7 300 470C420 468.3 546.7 491.7 700 490C853.3 488.3 1133.3 405 1220 460C1306.7 515 1426.7 760 1220 820C1013.3 880 186.7 873.3 -20 820C-226.7 766.7 -73.3 558.3 -20 500Z" fill="none" stroke="#17171b" stroke-width="6" stroke-linejoin="round"/>
<path d="M24 560C24.7 557.7 26.7 546 28 546C29.3 546 30.7 559.7 32 560C33.3 560.3 34.7 548 36 548C37.3 548 39.3 558 40 560" fill="none" stroke="#17171b" stroke-width="3" stroke-linecap="round" stroke-linejoin="round"/>
<path d="M77 597C77.7 594.7 79.7 583 81 583C82.3 583 83.7 596.7 85 597C86.3 597.3 87.7 585 89 585C90.3 585 92.3 595 93 597" fill="none" stroke="#17171b" stroke-width="3" stroke-linecap="round" stroke-linejoin="round"/>
<path d="M130 634C130.7 631.7 132.7 620 134 620C135.3 620 136.7 633.7 138 634C139.3 634.3 140.7 622 142 622C143.3 622 145.3 632 146 634" fill="none" stroke="#17171b" stroke-width="3" stroke-linecap="round" stroke-linejoin="round"/>
<path d="M162 671C162.7 668.7 164.7 657 166 657C167.3 657 168.7 670.7 170 671C171.3 671.3 172.7 659 174 659C175.3 659 177.3 669 178 671" fill="none" stroke="#17171b" stroke-width="3" stroke-linecap="round" stroke-linejoin="round"/>
<path d="M215 708C215.7 705.7 217.7 694 219 694C220.3 694 221.7 707.7 223 708C224.3 708.3 225.7 696 227 696C228.3 696 230.3 706 231 708" fill="none" stroke="#17171b" stroke-width="3" stroke-linecap="round" stroke-linejoin="round"/>
<path d="M268 745C268.7 742.7 270.7 731 272 731C273.3 731 274.7 744.7 276 745C277.3 745.3 278.7 733 280 733C281.3 733 283.3 743 284 745" fill="none" stroke="#17171b" stroke-width="3" stroke-linecap="round" stroke-linejoin="round"/>
<path d="M300 572C300.7 569.7 302.7 558 304 558C305.3 558 306.7 571.7 308 572C309.3 572.3 310.7 560 312 560C313.3 560 315.3 570 316 572" fill="none" stroke="#17171b" stroke-width="3" stroke-linecap="round" stroke-linejoin="round"/>
<path d="M353 609C353.7 606.7 355.7 595 357 595C358.3 595 359.7 608.7 361 609C362.3 609.3 363.7 597 365 597C366.3 597 368.3 607 369 609" fill="none" stroke="#17171b" stroke-width="3" stroke-linecap="round" stroke-linejoin="round"/>
<path d="M406 646C406.7 643.7 408.7 632 410 632C411.3 632 412.7 645.7 414 646C415.3 646.3 416.7 634 418 634C419.3 634 421.3 644 422 646" fill="none" stroke="#17171b" stroke-width="3" stroke-linecap="round" stroke-linejoin="round"/>
<path d="M438 683C438.7 680.7 440.7 669 442 669C443.3 669 444.7 682.7 446 683C447.3 683.3 448.7 671 450 671C451.3 671 453.3 681 454 683" fill="none" stroke="#17171b" stroke-width="3" stroke-linecap="round" stroke-linejoin="round"/>
<path d="M491 720C491.7 717.7 493.7 706 495 706C496.3 706 497.7 719.7 499 720C500.3 720.3 501.7 708 503 708C504.3 708 506.3 718 507 720" fill="none" stroke="#17171b" stroke-width="3" stroke-linecap="round" stroke-linejoin="round"/>
<path d="M544 757C544.7 754.7 546.7 743 548 743C549.3 743 550.7 756.7 552 757C553.3 757.3 554.7 745 556 745C557.3 745 559.3 755 560 757" fill="none" stroke="#17171b" stroke-width="3" stroke-linecap="round" stroke-linejoin="round"/>
<path d="M576 584C576.7 581.7 578.7 570 580 570C581.3 570 582.7 583.7 584 584C585.3 584.3 586.7 572 588 572C589.3 572 591.3 582 592 584" fill="none" stroke="#17171b" stroke-width="3" stroke-linecap="round" stroke-linejoin="round"/>
<path d="M629 621C629.7 618.7 631.7 607 633 607C634.3 607 635.7 620.7 637 621C638.3 621.3 639.7 609 641 609C642.3 609 644.3 619 645 621" fill="none" stroke="#17171b" stroke-width="3" stroke-linecap="round" stroke-linejoin="round"/>
<path d="M682 658C682.7 655.7 684.7 644 686 644C687.3 644 688.7 657.7 690 658C691.3 658.3 692.7 646 694 646C695.3 646 697.3 656 698 658" fill="none" stroke="#17171b" stroke-width="3" stroke-linecap="round" stroke-linejoin="round"/>
<path d="M714 695C714.7 692.7 716.7 681 718 681C719.3 681 720.7 694.7 722 695C723.3 695.3 724.7 683 726 683C727.3 683 729.3 693 730 695" fill="none" stroke="#17171b" stroke-width="3" stroke-linecap="round" stroke-linejoin="round"/>
<path d="M767 732C767.7 729.7 769.7 718 771 718C772.3 718 773.7 731.7 775 732C776.3 732.3 777.7 720 779 720C780.3 720 782.3 730 783 732" fill="none" stroke="#17171b" stroke-width="3" stroke-linecap="round" stroke-linejoin="round"/>
<path d="M820 769C820.7 766.7 822.7 755 824 755C825.3 755 826.7 768.7 828 769C829.3 769.3 830.7 757 832 757C833.3 757 835.3 767 836 769" fill="none" stroke="#17171b" stroke-width="3" stroke-linecap="round" stroke-linejoin="round"/>
<path d="M852 596C852.7 593.7 854.7 582 856 582C857.3 582 858.7 595.7 860 596C861.3 596.3 862.7 584 864 584C865.3 584 867.3 594 868 596" fill="none" stroke="#17171b" stroke-width="3" stroke-linecap="round" stroke-linejoin="round"/>
<path d="M905 633C905.7 630.7 907.7 619 909 619C910.3 619 911.7 632.7 913 633C914.3 633.3 915.7 621 917 621C918.3 621 920.3 631 921 633" fill="none" stroke="#17171b" stroke-width="3" stroke-linecap="round" stroke-linejoin="round"/>
<path d="M958 670C958.7 667.7 960.7 656 962 656C963.3 656 964.7 669.7 966 670C967.3 670.3 968.7 658 970 658C971.3 658 973.3 668 974 670" fill="none" stroke="#17171b" stroke-width="3" stroke-linecap="round" stroke-linejoin="round"/>
<path d="M990 707C990.7 704.7 992.7 693 994 693C995.3 693 996.7 706.7 998 707C999.3 707.3 1000.7 695 1002 695C1003.3 695 1005.3 705 1006 707" fill="none" stroke="#17171b" stroke-width="3" stroke-linecap="round" stroke-linejoin="round"/>
<path d="M1043 744C1043.7 741.7 1045.7 730 1047 730C1048.3 730 1049.7 743.7 1051 744C1052.3 744.3 1053.7 732 1055 732C1056.3 732 1058.3 742 1059 744" fill="none" stroke="#17171b" stroke-width="3" stroke-linecap="round" stroke-linejoin="round"/>
<path d="M1096 571C1096.7 568.7 1098.7 557 1100 557C1101.3 557 1102.7 570.7 1104 571C1105.3 571.3 1106.7 559 1108 559C1109.3 559 1111.3 569 1112 571" fill="none" stroke="#17171b" stroke-width="3" stroke-linecap="round" stroke-linejoin="round"/>
<path d="M1128 608C1128.7 605.7 1130.7 594 1132 594C1133.3 594 1134.7 607.7 1136 608C1137.3 608.3 1138.7 596 1140 596C1141.3 596 1143.3 606 1144 608" fill="none" stroke="#17171b" stroke-width="3" stroke-linecap="round" stroke-linejoin="round"/>
<path d="M1181 645C1181.7 642.7 1183.7 631 1185 631C1186.3 631 1187.7 644.7 1189 645C1190.3 645.3 1191.7 633 1193 633C1194.3 633 1196.3 643 1197 645" fill="none" stroke="#17171b" stroke-width="3" stroke-linecap="round" stroke-linejoin="round"/>
<path d="M520 500C556.7 446.3 560 444.7 600 498C640 551.3 796.7 766.3 760 820C723.3 873.7 420 873.3 380 820C340 766.7 483.3 553.7 520 500Z" fill="#e8d39a"/>
<g clip-path="url(#c5)"><path d="M560 500C553.3 446.3 566.7 444.7 600 498C633.3 551.3 753.3 766.3 760 820C766.7 873.7 673.3 873.3 640 820C606.7 766.7 566.7 553.7 560 500Z" fill="#cfb877"/></g>
<path d="M520 500C556.7 446.3 560 444.7 600 498C640 551.3 796.7 766.3 760 820C723.3 873.7 420 873.3 380 820C340 766.7 483.3 553.7 520 500Z" fill="none" stroke="#17171b" stroke-width="6" stroke-linejoin="round"/>
<path d="M130 560C118.3 535 147 463.3 150 420C153 376.7 141.3 320 148 300C154.7 280 182 278.3 190 300C198 321.7 191 385 196 430C201 475 231 548.3 220 570C209 591.7 141.7 585 130 560Z" fill="#9a6435"/>
<g clip-path="url(#c6)"><path d="M172 300C174 255 188 255 196 300C204 345 222 525 220 570C218 615 192 615 184 570C176 525 170 345 172 300Z" fill="#774a24"/></g>
<path d="M130 560C118.3 535 147 463.3 150 420C153 376.7 141.3 320 148 300C154.7 280 182 278.3 190 300C198 321.7 191 385 196 430C201 475 231 548.3 220 570C209 591.7 141.7 585 130 560Z" fill="none" stroke="#17171b" stroke-width="6" stroke-linejoin="round"/>
<path d="M160 380C162.5 382.5 172.5 392.5 175 395" fill="none" stroke="#17171b" stroke-width="3.5" stroke-linecap="round" stroke-linejoin="round"/>
<path d="M170 470C172 471.7 180.7 475 182 480C183.3 485 178.7 496.7 178 500" fill="none" stroke="#17171b" stroke-width="3.5" stroke-linecap="round" stroke-linejoin="round"/>
<path d="M325.9 220C331.9 231.6 328.3 250.3 317.5 259.7C306.6 269 272.3 266.3 260.7 276.3C249.2 286.3 258.5 310.1 247.9 319.8C237.4 329.4 213.7 336.5 197.2 334.2C180.8 332 167 308.6 149.4 306.2C131.9 303.8 108.7 321.7 92.1 319.8C75.5 317.8 55.4 306.2 49.8 294.6C44.2 282.9 64.6 262.4 58.7 249.9C52.7 237.5 20.1 231.6 14.1 220C8.1 208.4 11.7 189.7 22.5 180.3C33.4 171 67.7 173.7 79.3 163.7C90.8 153.7 81.5 129.9 92.1 120.2C102.6 110.6 126.3 103.5 142.8 105.8C159.2 108 173 131.4 190.6 133.8C208.1 136.2 231.3 118.3 247.9 120.2C264.5 122.2 284.6 133.8 290.2 145.4C295.8 157.1 275.4 177.6 281.3 190.1C287.3 202.5 319.9 208.4 325.9 220Z" fill="#3fa24a"/>
<g clip-path="url(#c7)"><path d="M60 250L300 250L300 360L60 360Z" fill="#2d7e37"/></g>
<path d="M325.9 220C331.9 231.6 328.3 250.3 317.5 259.7C306.6 269 272.3 266.3 260.7 276.3C249.2 286.3 258.5 310.1 247.9 319.8C237.4 329.4 213.7 336.5 197.2 334.2C180.8 332 167 308.6 149.4 306.2C131.9 303.8 108.7 321.7 92.1 319.8C75.5 317.8 55.4 306.2 49.8 294.6C44.2 282.9 64.6 262.4 58.7 249.9C52.7 237.5 20.1 231.6 14.1 220C8.1 208.4 11.7 189.7 22.5 180.3C33.4 171 67.7 173.7 79.3 163.7C90.8 153.7 81.5 129.9 92.1 120.2C102.6 110.6 126.3 103.5 142.8 105.8C159.2 108 173 131.4 190.6 133.8C208.1 136.2 231.3 118.3 247.9 120.2C264.5 122.2 284.6 133.8 290.2 145.4C295.8 157.1 275.4 177.6 281.3 190.1C287.3 202.5 319.9 208.4 325.9 220Z" fill="none" stroke="#17171b" stroke-width="6" stroke-linejoin="round"/>
<path d="M106 180C108.3 181.7 115.3 190 120 190C124.7 190 131.7 181.7 134 180" fill="none" stroke="#17171b" stroke-width="3.5" stroke-linecap="round" stroke-linejoin="round"/>
<path d="M138 214C138 215.9 137 218.3 135.7 219.7C134.3 221 131.9 222 130 222C128.1 222 125.7 221 124.3 219.7C123 218.3 122 215.9 122 214C122 212.1 123 209.7 124.3 208.3C125.7 207 128.1 206 130 206C131.9 206 134.3 207 135.7 208.3C137 209.7 138 212.1 138 214Z" fill="#e2412e"/>
<path d="M138 214C138 215.9 137 218.3 135.7 219.7C134.3 221 131.9 222 130 222C128.1 222 125.7 221 124.3 219.7C123 218.3 122 215.9 122 214C122 212.1 123 209.7 124.3 208.3C125.7 207 128.1 206 130 206C131.9 206 134.3 207 135.7 208.3C137 209.7 138 212.1 138 214Z" fill="none" stroke="#17171b" stroke-width="3" stroke-linejoin="round"/>
<path d="M206 160C208.3 161.7 215.3 170 220 170C224.7 170 231.7 161.7 234 160" fill="none" stroke="#17171b" stroke-width="3.5" stroke-linecap="round" stroke-linejoin="round"/>
<path d="M238 194C238 195.9 237 198.3 235.7 199.7C234.3 201 231.9 202 230 202C228.1 202 225.7 201 224.3 199.7C223 198.3 222 195.9 222 194C222 192.1 223 189.7 224.3 188.3C225.7 187 228.1 186 230 186C231.9 186 234.3 187 235.7 188.3C237 189.7 238 192.1 238 194Z" fill="#e2412e"/>
<path d="M238 194C238 195.9 237 198.3 235.7 199.7C234.3 201 231.9 202 230 202C228.1 202 225.7 201 224.3 199.7C223 198.3 222 195.9 222 194C222 192.1 223 189.7 224.3 188.3C225.7 187 228.1 186 230 186C231.9 186 234.3 187 235.7 188.3C237 189.7 238 192.1 238 194Z" fill="none" stroke="#17171b" stroke-width="3" stroke-linejoin="round"/>
<path d="M236 250C238.3 251.7 245.3 260 250 260C254.7 260 261.7 251.7 264 250" fill="none" stroke="#17171b" stroke-width="3.5" stroke-linecap="round" stroke-linejoin="round"/>
<path d="M268 284C268 285.9 267 288.3 265.7 289.7C264.3 291 261.9 292 260 292C258.1 292 255.7 291 254.3 289.7C253 288.3 252 285.9 252 284C252 282.1 253 279.7 254.3 278.3C255.7 277 258.1 276 260 276C261.9 276 264.3 277 265.7 278.3C267 279.7 268 282.1 268 284Z" fill="#e2412e"/>
<path d="M268 284C268 285.9 267 288.3 265.7 289.7C264.3 291 261.9 292 260 292C258.1 292 255.7 291 254.3 289.7C253 288.3 252 285.9 252 284C252 282.1 253 279.7 254.3 278.3C255.7 277 258.1 276 260 276C261.9 276 264.3 277 265.7 278.3C267 279.7 268 282.1 268 284Z" fill="none" stroke="#17171b" stroke-width="3" stroke-linejoin="round"/>
<path d="M86 260C88.3 261.7 95.3 270 100 270C104.7 270 111.7 261.7 114 260" fill="none" stroke="#17171b" stroke-width="3.5" stroke-linecap="round" stroke-linejoin="round"/>
<path d="M118 294C118 295.9 117 298.3 115.7 299.7C114.3 301 111.9 302 110 302C108.1 302 105.7 301 104.3 299.7C103 298.3 102 295.9 102 294C102 292.1 103 289.7 104.3 288.3C105.7 287 108.1 286 110 286C111.9 286 114.3 287 115.7 288.3C117 289.7 118 292.1 118 294Z" fill="#e2412e"/>
<path d="M118 294C118 295.9 117 298.3 115.7 299.7C114.3 301 111.9 302 110 302C108.1 302 105.7 301 104.3 299.7C103 298.3 102 295.9 102 294C102 292.1 103 289.7 104.3 288.3C105.7 287 108.1 286 110 286C111.9 286 114.3 287 115.7 288.3C117 289.7 118 292.1 118 294Z" fill="none" stroke="#17171b" stroke-width="3" stroke-linejoin="round"/>
<path d="M156 120C158.3 121.7 165.3 130 170 130C174.7 130 181.7 121.7 184 120" fill="none" stroke="#17171b" stroke-width="3.5" stroke-linecap="round" stroke-linejoin="round"/>
<path d="M188 154C188 155.9 187 158.3 185.7 159.7C184.3 161 181.9 162 180 162C178.1 162 175.7 161 174.3 159.7C173 158.3 172 155.9 172 154C172 152.1 173 149.7 174.3 148.3C175.7 147 178.1 146 180 146C181.9 146 184.3 147 185.7 148.3C187 149.7 188 152.1 188 154Z" fill="#e2412e"/>
<path d="M188 154C188 155.9 187 158.3 185.7 159.7C184.3 161 181.9 162 180 162C178.1 162 175.7 161 174.3 159.7C173 158.3 172 155.9 172 154C172 152.1 173 149.7 174.3 148.3C175.7 147 178.1 146 180 146C181.9 146 184.3 147 185.7 148.3C187 149.7 188 152.1 188 154Z" fill="none" stroke="#17171b" stroke-width="3" stroke-linejoin="round"/>
<path d="M820 520L836 520L836 610L820 610Z" fill="#55585f"/>
<path d="M820 520L836 520L836 610L820 610Z" fill="none" stroke="#17171b" stroke-width="6" stroke-linejoin="round"/>
<path d="M1060 520L1076 520L1076 610L1060 610Z" fill="#55585f"/>
<path d="M1060 520L1076 520L1076 610L1060 610Z" fill="none" stroke="#17171b" stroke-width="6" stroke-linejoin="round"/>
<path d="M790 470L1110 470L1110 500L790 500Z" fill="#c98a4b"/>
<g clip-path="url(#c8)"><path d="M790 488L1110 488L1110 500L790 500Z" fill="#a26a33"/></g>
<path d="M790 470L1110 470L1110 500L790 500Z" fill="none" stroke="#17171b" stroke-width="6" stroke-linejoin="round"/>
<path d="M790 515L1110 515L1110 545L790 545Z" fill="#c98a4b"/>
<g clip-path="url(#c9)"><path d="M790 533L1110 533L1110 545L790 545Z" fill="#a26a33"/></g>
<path d="M790 515L1110 515L1110 545L790 545Z" fill="none" stroke="#17171b" stroke-width="6" stroke-linejoin="round"/>
<path d="M800 420L1100 420L1100 448L800 448Z" fill="#c98a4b"/>
<path d="M800 420L1100 420L1100 448L800 448Z" fill="none" stroke="#17171b" stroke-width="6" stroke-linejoin="round"/>
<path d="M860 480C861 481 865 485 866 486" fill="none" stroke="#17171b" stroke-width="3" stroke-linecap="round" stroke-linejoin="round"/>
<path d="M940 480C941 481 945 485 946 486" fill="none" stroke="#17171b" stroke-width="3" stroke-linecap="round" stroke-linejoin="round"/>
<path d="M1020 480C1021 481 1025 485 1026 486" fill="none" stroke="#17171b" stroke-width="3" stroke-linecap="round" stroke-linejoin="round"/>
<path d="M970 300L986 300L986 420L970 420Z" fill="#9a6435"/>
<path d="M970 300L986 300L986 420L970 420Z" fill="none" stroke="#17171b" stroke-width="6" stroke-linejoin="round"/>
<path d="M880 220C912.7 204.7 1046 200.7 1080 214C1114 227.3 1116.7 284.7 1084 300C1051.3 315.3 918 319.3 884 306C850 292.7 847.3 235.3 880 220Z" fill="#fbf3d5"/>
<g clip-path="url(#c10)"><path d="M880 280C914 274.7 1050 269.7 1084 274C1118 278.3 1118 300.7 1084 306C1050 311.3 914 310.3 880 306C846 301.7 846 285.3 880 280Z" fill="#e9dcaa"/></g>
<path d="M880 220C912.7 204.7 1046 200.7 1080 214C1114 227.3 1116.7 284.7 1084 300C1051.3 315.3 918 319.3 884 306C850 292.7 847.3 235.3 880 220Z" fill="none" stroke="#17171b" stroke-width="6" stroke-linejoin="round"/>
<path d="M905 240L905 285" fill="none" stroke="#17171b" stroke-width="9" stroke-linecap="round" stroke-linejoin="round"/>
<path d="M905 240L925 240L930 252L920 262L905 262" fill="none" stroke="#17171b" stroke-width="9" stroke-linecap="round" stroke-linejoin="round"/>
<path d="M945 285L955 240L965 285" fill="none" stroke="#17171b" stroke-width="9" stroke-linecap="round" stroke-linejoin="round"/>
<path d="M950 268L961 268" fill="none" stroke="#17171b" stroke-width="9" stroke-linecap="round" stroke-linejoin="round"/>
<path d="M980 285L980 240L1000 285L1000 240" fill="none" stroke="#17171b" stroke-width="9" stroke-linecap="round" stroke-linejoin="round"/>
<path d="M1015 240L1015 285" fill="none" stroke="#17171b" stroke-width="9" stroke-linecap="round" stroke-linejoin="round"/>
<path d="M1015 262L1035 240" fill="none" stroke="#17171b" stroke-width="9" stroke-linecap="round" stroke-linejoin="round"/>
<path d="M1020 258L1037 285" fill="none" stroke="#17171b" stroke-width="9" stroke-linecap="round" stroke-linejoin="round"/>
<path d="M1050 248L1060 240" fill="none" stroke="#17171b" stroke-width="9" stroke-linecap="round" stroke-linejoin="round"/>
<path d="M1055 240L1055 270" fill="none" stroke="#17171b" stroke-width="9" stroke-linecap="round" stroke-linejoin="round"/>
<path d="M1060 283C1060 284.2 1059.4 285.7 1058.5 286.5C1057.7 287.4 1056.2 288 1055 288C1053.8 288 1052.3 287.4 1051.5 286.5C1050.6 285.7 1050 284.2 1050 283C1050 281.8 1050.6 280.3 1051.5 279.5C1052.3 278.6 1053.8 278 1055 278C1056.2 278 1057.7 278.6 1058.5 279.5C1059.4 280.3 1060 281.8 1060 283Z" fill="#17171b"/>
<path d="M560 735C560 737.7 555.4 740.7 547.9 743C540.4 745.3 528 747.5 515 748.9C502 750.2 485 751 470 751C455 751 438 750.2 425 748.9C412 747.5 399.6 745.3 392.1 743C384.6 740.7 380 737.7 380 735C380 732.3 384.6 729.3 392.1 727C399.6 724.7 412 722.5 425 721.1C438 719.8 455 719 470 719C485 719 502 719.8 515 721.1C528 722.5 540.4 724.7 547.9 727C555.4 729.3 560 732.3 560 735Z" fill="#4f9e34"/>
<path d="M462 560C457 536.7 431 536.7 424 560C417 583.3 415 676.7 420 700C425 723.3 447 723.3 454 700C461 676.7 467 583.3 462 560Z" fill="#3767c9"/>
<g clip-path="url(#c11)"><path d="M440 560C437.7 536.7 423.7 536.7 420 560C416.3 583.3 415.7 676.7 418 700C420.3 723.3 430.3 723.3 434 700C437.7 676.7 442.3 583.3 440 560Z" fill="#264d9e"/></g>
<path d="M462 560C457 536.7 431 536.7 424 560C417 583.3 415 676.7 420 700C425 723.3 447 723.3 454 700C461 676.7 467 583.3 462 560Z" fill="none" stroke="#17171b" stroke-width="6" stroke-linejoin="round"/>
<path d="M458 696C450.7 689.3 426.3 691.7 416 696C405.7 700.3 397 715.3 396 722C395 728.7 399.3 733.7 410 736C420.7 738.3 452 742.7 460 736C468 729.3 465.3 702.7 458 696Z" fill="#ffffff"/>
<g clip-path="url(#c12)"><path d="M470 724L390 724L390 740L470 740Z" fill="#d0d4dc"/></g>
<path d="M458 696C450.7 689.3 426.3 691.7 416 696C405.7 700.3 397 715.3 396 722C395 728.7 399.3 733.7 410 736C420.7 738.3 452 742.7 460 736C468 729.3 465.3 702.7 458 696Z" fill="none" stroke="#17171b" stroke-width="6" stroke-linejoin="round"/>
<path d="M444 706C441.7 705.7 432.3 704.3 430 704" fill="none" stroke="#17171b" stroke-width="3" stroke-linecap="round" stroke-linejoin="round"/>
<path d="M478 560C483 536.7 509 536.7 516 560C523 583.3 525 676.7 520 700C515 723.3 493 723.3 486 700C479 676.7 473 583.3 478 560Z" fill="#3767c9"/>
<g clip-path="url(#c13)"><path d="M500 560C502.3 536.7 516.3 536.7 520 560C523.7 583.3 524.3 676.7 522 700C519.7 723.3 509.7 723.3 506 700C502.3 676.7 497.7 583.3 500 560Z" fill="#264d9e"/></g>
<path d="M478 560C483 536.7 509 536.7 516 560C523 583.3 525 676.7 520 700C515 723.3 493 723.3 486 700C479 676.7 473 583.3 478 560Z" fill="none" stroke="#17171b" stroke-width="6" stroke-linejoin="round"/>
<path d="M482 696C489.3 689.3 513.7 691.7 524 696C534.3 700.3 543 715.3 544 722C545 728.7 540.7 733.7 530 736C519.3 738.3 488 742.7 480 736C472 729.3 474.7 702.7 482 696Z" fill="#ffffff"/>
<g clip-path="url(#c14)"><path d="M470 724L550 724L550 740L470 740Z" fill="#d0d4dc"/></g>
<path d="M482 696C489.3 689.3 513.7 691.7 524 696C534.3 700.3 543 715.3 544 722C545 728.7 540.7 733.7 530 736C519.3 738.3 488 742.7 480 736C472 729.3 474.7 702.7 482 696Z" fill="none" stroke="#17171b" stroke-width="6" stroke-linejoin="round"/>
<path d="M496 706C498.3 705.7 507.7 704.3 510 704" fill="none" stroke="#17171b" stroke-width="3" stroke-linecap="round" stroke-linejoin="round"/>
<path d="M408 420C399.7 447.7 378 545 400 570C422 595 518 595 540 570C562 545 540.3 447.7 532 420C523.7 392.3 503.7 406.7 490 404C476.3 401.3 463.7 401.3 450 404C436.3 406.7 416.3 392.3 408 420Z" fill="#ff5a3c"/>
<g clip-path="url(#c15)"><path d="M490 400C498.3 370 540 370 550 400C560 430 558.3 550 550 580C541.7 610 510 610 500 580C490 550 481.7 430 490 400Z" fill="#d23f25"/></g>
<path d="M408 420C399.7 447.7 378 545 400 570C422 595 518 595 540 570C562 545 540.3 447.7 532 420C523.7 392.3 503.7 406.7 490 404C476.3 401.3 463.7 401.3 450 404C436.3 406.7 416.3 392.3 408 420Z" fill="none" stroke="#17171b" stroke-width="6" stroke-linejoin="round"/>
<path d="M400 548C423.7 543.7 516.3 543.7 540 548C563.7 552.3 565.7 569.7 542 574C518.3 578.3 421.7 578.3 398 574C374.3 569.7 376.3 552.3 400 548Z" fill="#ffffff"/>
<path d="M400 548C423.7 543.7 516.3 543.7 540 548C563.7 552.3 565.7 569.7 542 574C518.3 578.3 421.7 578.3 398 574C374.3 569.7 376.3 552.3 400 548Z" fill="none" stroke="#17171b" stroke-width="6" stroke-linejoin="round"/>
<path d="M496 480C496 484.3 494.7 489.2 492.5 493C490.3 496.8 486.8 500.3 483 502.5C479.2 504.7 474.3 506 470 506C465.7 506 460.8 504.7 457 502.5C453.2 500.3 449.7 496.8 447.5 493C445.3 489.2 444 484.3 444 480C444 475.7 445.3 470.8 447.5 467C449.7 463.2 453.2 459.7 457 457.5C460.8 455.3 465.7 454 470 454C474.3 454 479.2 455.3 483 457.5C486.8 459.7 490.3 463.2 492.5 467C494.7 470.8 496 475.7 496 480Z" fill="#ffe04a"/>
<path d="M496 480C496 484.3 494.7 489.2 492.5 493C490.3 496.8 486.8 500.3 483 502.5C479.2 504.7 474.3 506 470 506C465.7 506 460.8 504.7 457 502.5C453.2 500.3 449.7 496.8 447.5 493C445.3 489.2 444 484.3 444 480C444 475.7 445.3 470.8 447.5 467C449.7 463.2 453.2 459.7 457 457.5C460.8 455.3 465.7 454 470 454C474.3 454 479.2 455.3 483 457.5C486.8 459.7 490.3 463.2 492.5 467C494.7 470.8 496 475.7 496 480Z" fill="none" stroke="#17171b" stroke-width="6" stroke-linejoin="round"/>
<path d="M462 468C466 465.3 479 465.7 480 468C481 470.3 467.7 479.7 468 482C468.3 484.3 483.3 479.7 482 482C480.7 484.3 462.3 495.7 460 496C457.7 496.3 468.7 486 468 484C467.3 482 457 486.7 456 484C455 481.3 458 470.7 462 468Z" fill="#17171b"/>
<path d="M410 430C402.3 433.3 381.3 463.3 374 480C366.7 496.7 363.3 521 366 530C368.7 539 385 541 390 534C395 527 391 500.3 396 488C401 475.7 417.7 469.7 420 460C422.3 450.3 417.7 426.7 410 430Z" fill="#ff5a3c"/>
<path d="M410 430C402.3 433.3 381.3 463.3 374 480C366.7 496.7 363.3 521 366 530C368.7 539 385 541 390 534C395 527 391 500.3 396 488C401 475.7 417.7 469.7 420 460C422.3 450.3 417.7 426.7 410 430Z" fill="none" stroke="#17171b" stroke-width="6" stroke-linejoin="round"/>
<path d="M398 544C398 547.5 396.5 551.7 394.2 554.6C391.9 557.4 387.9 560 384.2 561.1C380.5 562.2 375.5 562.2 371.8 561.1C368.1 560 364.1 557.4 361.8 554.6C359.5 551.7 358 547.5 358 544C358 540.5 359.5 536.3 361.8 533.4C364.1 530.6 368.1 528 371.8 526.9C375.5 525.8 380.5 525.8 384.2 526.9C387.9 528 391.9 530.6 394.2 533.4C396.5 536.3 398 540.5 398 544Z" fill="#ffd2a8"/>
<path d="M398 544C398 547.5 396.5 551.7 394.2 554.6C391.9 557.4 387.9 560 384.2 561.1C380.5 562.2 375.5 562.2 371.8 561.1C368.1 560 364.1 557.4 361.8 554.6C359.5 551.7 358 547.5 358 544C358 540.5 359.5 536.3 361.8 533.4C364.1 530.6 368.1 528 371.8 526.9C375.5 525.8 380.5 525.8 384.2 526.9C387.9 528 391.9 530.6 394.2 533.4C396.5 536.3 398 540.5 398 544Z" fill="none" stroke="#17171b" stroke-width="6" stroke-linejoin="round"/>
<path d="M366 548C366 549.3 366 554.7 366 556" fill="none" stroke="#17171b" stroke-width="3" stroke-linecap="round" stroke-linejoin="round"/>
<path d="M375 548C375 549.3 375 554.7 375 556" fill="none" stroke="#17171b" stroke-width="3" stroke-linecap="round" stroke-linejoin="round"/>
<path d="M384 548C384 549.3 384 554.7 384 556" fill="none" stroke="#17171b" stroke-width="3" stroke-linecap="round" stroke-linejoin="round"/>
<path d="M526 428C535.7 423.3 563.3 390 574 372C584.7 354 591 330 590 320C589 310 574.7 305 568 312C561.3 319 558.7 347.3 550 362C541.3 376.7 520 389 516 400C512 411 516.3 432.7 526 428Z" fill="#ff5a3c"/>
<g clip-path="url(#c16)"><path d="M570 300C581.7 286.7 611.7 300 610 320C608.3 340 571.7 406.7 560 420C548.3 433.3 538.3 420 540 400C541.7 380 558.3 313.3 570 300Z" fill="#d23f25"/></g>
<path d="M526 428C535.7 423.3 563.3 390 574 372C584.7 354 591 330 590 320C589 310 574.7 305 568 312C561.3 319 558.7 347.3 550 362C541.3 376.7 520 389 516 400C512 411 516.3 432.7 526 428Z" fill="none" stroke="#17171b" stroke-width="6" stroke-linejoin="round"/>
<path d="M566 312C561 307.3 561.3 297 562 290C562.7 283 567.7 270.3 570 270C572.3 269.7 574 289.3 576 288C578 286.7 579.7 265.7 582 262C584.3 258.3 589 261.7 590 266C591 270.3 586.3 286.3 588 288C589.7 289.7 597.3 276.3 600 276C602.7 275.7 605.3 279 604 286C602.7 293 598.3 313.7 592 318C585.7 322.3 571 316.7 566 312Z" fill="#ffd2a8"/>
<path d="M566 312C561 307.3 561.3 297 562 290C562.7 283 567.7 270.3 570 270C572.3 269.7 574 289.3 576 288C578 286.7 579.7 265.7 582 262C584.3 258.3 589 261.7 590 266C591 270.3 586.3 286.3 588 288C589.7 289.7 597.3 276.3 600 276C602.7 275.7 605.3 279 604 286C602.7 293 598.3 313.7 592 318C585.7 322.3 571 316.7 566 312Z" fill="none" stroke="#17171b" stroke-width="6" stroke-linejoin="round"/>
<path d="M724 200C724 204 722.8 208.5 720.8 212C718.8 215.5 715.5 218.8 712 220.8C708.5 222.8 704 224 700 224C696 224 691.5 222.8 688 220.8C684.5 218.8 681.2 215.5 679.2 212C677.2 208.5 676 204 676 200C676 196 677.2 191.5 679.2 188C681.2 184.5 684.5 181.2 688 179.2C691.5 177.2 696 176 700 176C704 176 708.5 177.2 712 179.2C715.5 181.2 718.8 184.5 720.8 188C722.8 191.5 724 196 724 200Z" fill="#d4e83a"/>
<g clip-path="url(#c17)"><path d="M670 205C680 200 720 195.8 730 200C740 204.2 740 225 730 230C720 235 680 234.2 670 230C660 225.8 660 210 670 205Z" fill="#aac420"/></g>
<path d="M724 200C724 204 722.8 208.5 720.8 212C718.8 215.5 715.5 218.8 712 220.8C708.5 222.8 704 224 700 224C696 224 691.5 222.8 688 220.8C684.5 218.8 681.2 215.5 679.2 212C677.2 208.5 676 204 676 200C676 196 677.2 191.5 679.2 188C681.2 184.5 684.5 181.2 688 179.2C691.5 177.2 696 176 700 176C704 176 708.5 177.2 712 179.2C715.5 181.2 718.8 184.5 720.8 188C722.8 191.5 724 196 724 200Z" fill="none" stroke="#17171b" stroke-width="6" stroke-linejoin="round"/>
<path d="M684 186C686.7 188.3 700 195 700 200C700 205 686.7 213.3 684 216" fill="none" stroke="#ffffff" stroke-width="3" stroke-linecap="round" stroke-linejoin="round"/>
<path d="M610 260C618.3 255.3 651.7 236.7 660 232" fill="none" stroke="#17171b" stroke-width="4" stroke-linecap="round" stroke-linejoin="round"/>
<path d="M622 234C629.7 230.3 660.3 215.7 668 212" fill="none" stroke="#17171b" stroke-width="4" stroke-linecap="round" stroke-linejoin="round"/>
<path d="M634 208C641 205.3 669 194.7 676 192" fill="none" stroke="#17171b" stroke-width="4" stroke-linecap="round" stroke-linejoin="round"/>
<path d="M452 400C446.3 403.3 448.3 416.7 454 420C459.7 423.3 480.3 423.3 486 420C491.7 416.7 493.7 403.3 488 400C482.3 396.7 457.7 396.7 452 400Z" fill="#ffd2a8"/>
<path d="M452 400C446.3 403.3 448.3 416.7 454 420C459.7 423.3 480.3 423.3 486 420C491.7 416.7 493.7 403.3 488 400C482.3 396.7 457.7 396.7 452 400Z" fill="none" stroke="#17171b" stroke-width="6" stroke-linejoin="round"/>
<path d="M548 330C548 340.5 545.9 351.7 542.1 361.4C538.3 371 532.2 380.6 525.2 388C518.1 395.4 509 401.8 499.8 405.8C490.7 409.8 479.9 412 470 412C460.1 412 449.3 409.8 440.2 405.8C431 401.8 421.9 395.4 414.8 388C407.8 380.6 401.7 371 397.9 361.4C394.1 351.7 392 340.5 392 330C392 319.5 394.1 308.3 397.9 298.6C401.7 289 407.8 279.4 414.8 272C421.9 264.6 431 258.2 440.2 254.2C449.3 250.2 460.1 248 470 248C479.9 248 490.7 250.2 499.8 254.2C509 258.2 518.1 264.6 525.2 272C532.2 279.4 538.3 289 542.1 298.6C545.9 308.3 548 319.5 548 330Z" fill="#ffd2a8"/>
<g clip-path="url(#c18)"><path d="M510 260C520 243.3 563.3 273.3 570 300C576.7 326.7 560 403.3 550 420C540 436.7 516.7 426.7 510 400C503.3 373.3 500 276.7 510 260Z" fill="#eeae80"/></g>
<path d="M548 330C548 340.5 545.9 351.7 542.1 361.4C538.3 371 532.2 380.6 525.2 388C518.1 395.4 509 401.8 499.8 405.8C490.7 409.8 479.9 412 470 412C460.1 412 449.3 409.8 440.2 405.8C431 401.8 421.9 395.4 414.8 388C407.8 380.6 401.7 371 397.9 361.4C394.1 351.7 392 340.5 392 330C392 319.5 394.1 308.3 397.9 298.6C401.7 289 407.8 279.4 414.8 272C421.9 264.6 431 258.2 440.2 254.2C449.3 250.2 460.1 248 470 248C479.9 248 490.7 250.2 499.8 254.2C509 258.2 518.1 264.6 525.2 272C532.2 279.4 538.3 289 542.1 298.6C545.9 308.3 548 319.5 548 330Z" fill="none" stroke="#17171b" stroke-width="6" stroke-linejoin="round"/>
<path d="M408 340C408 343.9 406.8 348.6 404.9 351.8C403.1 354.9 399.9 357.8 396.9 359C394 360.2 390 360.2 387.1 359C384.1 357.8 380.9 354.9 379.1 351.8C377.2 348.6 376 343.9 376 340C376 336.1 377.2 331.4 379.1 328.2C380.9 325.1 384.1 322.2 387.1 321C390 319.8 394 319.8 396.9 321C399.9 322.2 403.1 325.1 404.9 328.2C406.8 331.4 408 336.1 408 340Z" fill="#ffd2a8"/>
<path d="M408 340C408 343.9 406.8 348.6 404.9 351.8C403.1 354.9 399.9 357.8 396.9 359C394 360.2 390 360.2 387.1 359C384.1 357.8 380.9 354.9 379.1 351.8C377.2 348.6 376 343.9 376 340C376 336.1 377.2 331.4 379.1 328.2C380.9 325.1 384.1 322.2 387.1 321C390 319.8 394 319.8 396.9 321C399.9 322.2 403.1 325.1 404.9 328.2C406.8 331.4 408 336.1 408 340Z" fill="none" stroke="#17171b" stroke-width="6" stroke-linejoin="round"/>
<path d="M392 332C391 334 387 342 386 344" fill="none" stroke="#17171b" stroke-width="3" stroke-linecap="round" stroke-linejoin="round"/>
<path d="M564 340C564 343.9 562.8 348.6 560.9 351.8C559.1 354.9 555.9 357.8 552.9 359C550 360.2 546 360.2 543.1 359C540.1 357.8 536.9 354.9 535.1 351.8C533.2 348.6 532 343.9 532 340C532 336.1 533.2 331.4 535.1 328.2C536.9 325.1 540.1 322.2 543.1 321C546 319.8 550 319.8 552.9 321C555.9 322.2 559.1 325.1 560.9 328.2C562.8 331.4 564 336.1 564 340Z" fill="#ffd2a8"/>
<path d="M564 340C564 343.9 562.8 348.6 560.9 351.8C559.1 354.9 555.9 357.8 552.9 359C550 360.2 546 360.2 543.1 359C540.1 357.8 536.9 354.9 535.1 351.8C533.2 348.6 532 343.9 532 340C532 336.1 533.2 331.4 535.1 328.2C536.9 325.1 540.1 322.2 543.1 321C546 319.8 550 319.8 552.9 321C555.9 322.2 559.1 325.1 560.9 328.2C562.8 331.4 564 336.1 564 340Z" fill="none" stroke="#17171b" stroke-width="6" stroke-linejoin="round"/>
<path d="M548 332C549 334 553 342 554 344" fill="none" stroke="#17171b" stroke-width="3" stroke-linecap="round" stroke-linejoin="round"/>
<path d="M388 320C381 317.7 374.3 281.3 378 270C381.7 258.7 406.3 259.3 410 252C413.7 244.7 395 228.7 400 226C405 223.3 433 239.3 440 236C447 232.7 436 207 442 206C448 205 468 231 476 230C484 229 484.3 199 490 200C495.7 201 501 232.3 510 236C519 239.7 539 218.7 544 222C549 225.3 536.3 248 540 256C543.7 264 564 260 566 270C568 280 559.7 314 552 316C544.3 318 533.7 289.7 520 282C506.3 274.3 486.7 269.7 470 270C453.3 270.3 433.7 275.7 420 284C406.3 292.3 395 322.3 388 320Z" fill="#4a2c1d"/>
<g clip-path="url(#c19)"><path d="M370 200C383.3 180 438.3 186.7 450 200C461.7 213.3 453.3 260 440 280C426.7 300 381.7 333.3 370 320C358.3 306.7 356.7 220 370 200Z" fill="#33200f"/></g>
<path d="M388 320C381 317.7 374.3 281.3 378 270C381.7 258.7 406.3 259.3 410 252C413.7 244.7 395 228.7 400 226C405 223.3 433 239.3 440 236C447 232.7 436 207 442 206C448 205 468 231 476 230C484 229 484.3 199 490 200C495.7 201 501 232.3 510 236C519 239.7 539 218.7 544 222C549 225.3 536.3 248 540 256C543.7 264 564 260 566 270C568 280 559.7 314 552 316C544.3 318 533.7 289.7 520 282C506.3 274.3 486.7 269.7 470 270C453.3 270.3 433.7 275.7 420 284C406.3 292.3 395 322.3 388 320Z" fill="none" stroke="#17171b" stroke-width="6" stroke-linejoin="round"/>
<path d="M458 330C458 334 457.1 338.5 455.6 342C454.1 345.5 451.6 348.8 449 350.8C446.4 352.8 443 354 440 354C437 354 433.6 352.8 431 350.8C428.4 348.8 425.9 345.5 424.4 342C422.9 338.5 422 334 422 330C422 326 422.9 321.5 424.4 318C425.9 314.5 428.4 311.2 431 309.2C433.6 307.2 437 306 440 306C443 306 446.4 307.2 449 309.2C451.6 311.2 454.1 314.5 455.6 318C457.1 321.5 458 326 458 330Z" fill="#ffffff"/>
<path d="M458 330C458 334 457.1 338.5 455.6 342C454.1 345.5 451.6 348.8 449 350.8C446.4 352.8 443 354 440 354C437 354 433.6 352.8 431 350.8C428.4 348.8 425.9 345.5 424.4 342C422.9 338.5 422 334 422 330C422 326 422.9 321.5 424.4 318C425.9 314.5 428.4 311.2 431 309.2C433.6 307.2 437 306 440 306C443 306 446.4 307.2 449 309.2C451.6 311.2 454.1 314.5 455.6 318C457.1 321.5 458 326 458 330Z" fill="none" stroke="#17171b" stroke-width="5" stroke-linejoin="round"/>
<path d="M451 334C451 336.1 450.1 338.9 448.9 340.4C447.8 341.9 445.6 343 444 343C442.4 343 440.2 341.9 439.1 340.4C437.9 338.9 437 336.1 437 334C437 331.9 437.9 329.1 439.1 327.6C440.2 326.1 442.4 325 444 325C445.6 325 447.8 326.1 448.9 327.6C450.1 329.1 451 331.9 451 334Z" fill="#17171b"/>
<path d="M424 296C426.7 295 434.7 289.7 440 290C445.3 290.3 453.3 296.7 456 298" fill="none" stroke="#17171b" stroke-width="5" stroke-linecap="round" stroke-linejoin="round"/>
<path d="M518 330C518 334 517.1 338.5 515.6 342C514.1 345.5 511.6 348.8 509 350.8C506.4 352.8 503 354 500 354C497 354 493.6 352.8 491 350.8C488.4 348.8 485.9 345.5 484.4 342C482.9 338.5 482 334 482 330C482 326 482.9 321.5 484.4 318C485.9 314.5 488.4 311.2 491 309.2C493.6 307.2 497 306 500 306C503 306 506.4 307.2 509 309.2C511.6 311.2 514.1 314.5 515.6 318C517.1 321.5 518 326 518 330Z" fill="#ffffff"/>
<path d="M518 330C518 334 517.1 338.5 515.6 342C514.1 345.5 511.6 348.8 509 350.8C506.4 352.8 503 354 500 354C497 354 493.6 352.8 491 350.8C488.4 348.8 485.9 345.5 484.4 342C482.9 338.5 482 334 482 330C482 326 482.9 321.5 484.4 318C485.9 314.5 488.4 311.2 491 309.2C493.6 307.2 497 306 500 306C503 306 506.4 307.2 509 309.2C511.6 311.2 514.1 314.5 515.6 318C517.1 321.5 518 326 518 330Z" fill="none" stroke="#17171b" stroke-width="5" stroke-linejoin="round"/>
<path d="M511 334C511 336.1 510.1 338.9 508.9 340.4C507.8 341.9 505.6 343 504 343C502.4 343 500.2 341.9 499.1 340.4C497.9 338.9 497 336.1 497 334C497 331.9 497.9 329.1 499.1 327.6C500.2 326.1 502.4 325 504 325C505.6 325 507.8 326.1 508.9 327.6C510.1 329.1 511 331.9 511 334Z" fill="#17171b"/>
<path d="M484 296C486.7 295 494.7 289.7 500 290C505.3 290.3 513.3 296.7 516 298" fill="none" stroke="#17171b" stroke-width="5" stroke-linecap="round" stroke-linejoin="round"/>
<path d="M479 358C479 359.6 477.9 361.8 476.4 362.9C474.9 364.1 472.1 365 470 365C467.9 365 465.1 364.1 463.6 362.9C462.1 361.8 461 359.6 461 358C461 356.4 462.1 354.2 463.6 353.1C465.1 351.9 467.9 351 470 351C472.1 351 474.9 351.9 476.4 353.1C477.9 354.2 479 356.4 479 358Z" fill="#eeae80"/>
<path d="M479 358C479 359.6 477.9 361.8 476.4 362.9C474.9 364.1 472.1 365 470 365C467.9 365 465.1 364.1 463.6 362.9C462.1 361.8 461 359.6 461 358C461 356.4 462.1 354.2 463.6 353.1C465.1 351.9 467.9 351 470 351C472.1 351 474.9 351.9 476.4 353.1C477.9 354.2 479 356.4 479 358Z" fill="none" stroke="#17171b" stroke-width="4" stroke-linejoin="round"/>
<path d="M436 378C436 380.3 458.7 400 470 400C481.3 400 504 380.3 504 378C504 375.7 481.3 386 470 386C458.7 386 436 375.7 436 378Z" fill="#8b2c2c"/>
<g clip-path="url(#c20)"><path d="M450 392C453.3 390.7 486.7 390.7 490 392C493.3 393.3 476.7 400 470 400C463.3 400 446.7 393.3 450 392Z" fill="#ef7b7b"/></g>
<path d="M436 378C436 380.3 458.7 400 470 400C481.3 400 504 380.3 504 378C504 375.7 481.3 386 470 386C458.7 386 436 375.7 436 378Z" fill="none" stroke="#17171b" stroke-width="5" stroke-linejoin="round"/>
<path d="M720 650C709 653.7 675.7 681 670 690C664.3 699 675 707.7 686 704C697 700.3 730.3 677 736 668C741.7 659 731 646.3 720 650Z" fill="#d38d2c"/>
<path d="M720 650C709 653.7 675.7 681 670 690C664.3 699 675 707.7 686 704C697 700.3 730.3 677 736 668C741.7 659 731 646.3 720 650Z" fill="none" stroke="#17171b" stroke-width="6" stroke-linejoin="round"/>
<path d="M840 650C843.3 660 870.3 693.3 880 700C889.7 706.7 901.3 700 898 690C894.7 680 869.7 646.7 860 640C850.3 633.3 836.7 640 840 650Z" fill="#d38d2c"/>
<path d="M840 650C843.3 660 870.3 693.3 880 700C889.7 706.7 901.3 700 898 690C894.7 680 869.7 646.7 860 640C850.3 633.3 836.7 640 840 650Z" fill="none" stroke="#17171b" stroke-width="6" stroke-linejoin="round"/>
<path d="M750 655C742 663.3 722 701.2 720 712C718 722.8 730 728.3 738 720C746 711.7 766 672.8 768 662C770 651.2 758 646.7 750 655Z" fill="#d38d2c"/>
<path d="M750 655C742 663.3 722 701.2 720 712C718 722.8 730 728.3 738 720C746 711.7 766 672.8 768 662C770 651.2 758 646.7 750 655Z" fill="none" stroke="#17171b" stroke-width="6" stroke-linejoin="round"/>
<path d="M820 655C820 666 835.3 706.8 842 716C848.7 725.2 860 721 860 710C860 699 848.7 659.2 842 650C835.3 640.8 820 644 820 655Z" fill="#d38d2c"/>
<path d="M820 655C820 666 835.3 706.8 842 716C848.7 725.2 860 721 860 710C860 699 848.7 659.2 842 650C835.3 640.8 820 644 820 655Z" fill="none" stroke="#17171b" stroke-width="6" stroke-linejoin="round"/>
<path d="M700 620C700 606 710 588.3 730 580C750 571.7 796.7 568.3 820 570C843.3 571.7 860 578.3 870 590C880 601.7 886.7 627.7 880 640C873.3 652.3 855 660 830 664C805 668 751.7 671.3 730 664C708.3 656.7 700 634 700 620Z" fill="#f2b04c"/>
<g clip-path="url(#c21)"><path d="M690 640L890 640L890 680L690 680Z" fill="#d38d2c"/></g>
<path d="M700 620C700 606 710 588.3 730 580C750 571.7 796.7 568.3 820 570C843.3 571.7 860 578.3 870 590C880 601.7 886.7 627.7 880 640C873.3 652.3 855 660 830 664C805 668 751.7 671.3 730 664C708.3 656.7 700 634 700 620Z" fill="none" stroke="#17171b" stroke-width="6" stroke-linejoin="round"/>
<path d="M800 610C800 614.3 797.7 619.4 794.3 622.9C790.8 626.4 784.9 629.6 779.3 630.9C773.7 632.3 766.3 632.3 760.7 630.9C755.1 629.6 749.2 626.4 745.7 622.9C742.3 619.4 740 614.3 740 610C740 605.7 742.3 600.6 745.7 597.1C749.2 593.6 755.1 590.4 760.7 589.1C766.3 587.7 773.7 587.7 779.3 589.1C784.9 590.4 790.8 593.6 794.3 597.1C797.7 600.6 800 605.7 800 610Z" fill="#ffffff"/>
<path d="M704 610C697.3 598.3 670.7 569 660 560C649.3 551 638.3 551.7 640 556C641.7 560.3 660 573.7 670 586C680 598.3 694.3 626 700 630C705.7 634 710.7 621.7 704 610Z" fill="#f2b04c"/>
<path d="M704 610C697.3 598.3 670.7 569 660 560C649.3 551 638.3 551.7 640 556C641.7 560.3 660 573.7 670 586C680 598.3 694.3 626 700 630C705.7 634 710.7 621.7 704 610Z" fill="none" stroke="#17171b" stroke-width="6" stroke-linejoin="round"/>
<path d="M842 568C845.7 562.7 865.3 558 872 560C878.7 562 885.7 574.7 882 580C878.3 585.3 856.7 594 850 592C843.3 590 838.3 573.3 842 568Z" fill="#2b62d6"/>
<path d="M842 568C845.7 562.7 865.3 558 872 560C878.7 562 885.7 574.7 882 580C878.3 585.3 856.7 594 850 592C843.3 590 838.3 573.3 842 568Z" fill="none" stroke="#17171b" stroke-width="4" stroke-linejoin="round"/>
<path d="M860 590C835 598.3 790.3 645 710 640C629.7 635 433.3 573.3 378 560" fill="none" stroke="#17171b" stroke-width="4" stroke-linecap="round" stroke-linejoin="round"/>
<path d="M850 560C844 548.3 845.7 518.7 854 506C862.3 493.3 882.3 485 900 484C917.7 483 948 492.3 960 500C972 507.7 975.3 520 972 530C968.7 540 953.7 552.3 940 560C926.3 567.7 905 576 890 576C875 576 856 571.7 850 560Z" fill="#f2b04c"/>
<g clip-path="url(#c22)"><path d="M850 540L980 540L980 600L850 600Z" fill="#d38d2c"/></g>
<path d="M850 560C844 548.3 845.7 518.7 854 506C862.3 493.3 882.3 485 900 484C917.7 483 948 492.3 960 500C972 507.7 975.3 520 972 530C968.7 540 953.7 552.3 940 560C926.3 567.7 905 576 890 576C875 576 856 571.7 850 560Z" fill="none" stroke="#17171b" stroke-width="6" stroke-linejoin="round"/>
<path d="M870 500C862.7 501.3 844.7 508.3 840 520C835.3 531.7 837.7 563.3 842 570C846.3 576.7 859 569.7 866 560C873 550.3 883.3 522 884 512C884.7 502 877.3 498.7 870 500Z" fill="#a0622a"/>
<path d="M870 500C862.7 501.3 844.7 508.3 840 520C835.3 531.7 837.7 563.3 842 570C846.3 576.7 859 569.7 866 560C873 550.3 883.3 522 884 512C884.7 502 877.3 498.7 870 500Z" fill="none" stroke="#17171b" stroke-width="6" stroke-linejoin="round"/>
<path d="M984 518C984 520 983.1 522.3 981.7 523.9C980.3 525.5 977.9 526.9 975.7 527.5C973.5 528.1 970.5 528.1 968.3 527.5C966.1 526.9 963.7 525.5 962.3 523.9C960.9 522.3 960 520 960 518C960 516 960.9 513.7 962.3 512.1C963.7 510.5 966.1 509.1 968.3 508.5C970.5 507.9 973.5 507.9 975.7 508.5C977.9 509.1 980.3 510.5 981.7 512.1C983.1 513.7 984 516 984 518Z" fill="#17171b"/>
<path d="M930 510C930 512.4 929.2 515.2 928.1 517.1C926.9 519 925 520.7 923.1 521.4C921.2 522.1 918.8 522.1 916.9 521.4C915 520.7 913.1 519 911.9 517.1C910.8 515.2 910 512.4 910 510C910 507.6 910.8 504.8 911.9 502.9C913.1 501 915 499.3 916.9 498.6C918.8 497.9 921.2 497.9 923.1 498.6C925 499.3 926.9 501 928.1 502.9C929.2 504.8 930 507.6 930 510Z" fill="#ffffff"/>
<path d="M930 510C930 512.4 929.2 515.2 928.1 517.1C926.9 519 925 520.7 923.1 521.4C921.2 522.1 918.8 522.1 916.9 521.4C915 520.7 913.1 519 911.9 517.1C910.8 515.2 910 512.4 910 510C910 507.6 910.8 504.8 911.9 502.9C913.1 501 915 499.3 916.9 498.6C918.8 497.9 921.2 497.9 923.1 498.6C925 499.3 926.9 501 928.1 502.9C929.2 504.8 930 507.6 930 510Z" fill="none" stroke="#17171b" stroke-width="4" stroke-linejoin="round"/>
<path d="M927 512C927 513.4 926.5 515.2 925.8 516.2C925.2 517.2 923.9 518 923 518C922.1 518 920.8 517.2 920.2 516.2C919.5 515.2 919 513.4 919 512C919 510.6 919.5 508.8 920.2 507.8C920.8 506.8 922.1 506 923 506C923.9 506 925.2 506.8 925.8 507.8C926.5 508.8 927 510.6 927 512Z" fill="#17171b"/>
<path d="M940 548C943 549.3 953 556.3 958 556C963 555.7 968 547.7 970 546" fill="none" stroke="#17171b" stroke-width="4" stroke-linecap="round" stroke-linejoin="round"/>
<path d="M942 552C940.3 556.7 946.7 576 950 580C953.3 584 960.3 580.7 962 576C963.7 571.3 963.3 556 960 552C956.7 548 943.7 547.3 942 552Z" fill="#f06a8a"/>
<path d="M942 552C940.3 556.7 946.7 576 950 580C953.3 584 960.3 580.7 962 576C963.7 571.3 963.3 556 960 552C956.7 548 943.7 547.3 942 552Z" fill="none" stroke="#17171b" stroke-width="4" stroke-linejoin="round"/>
</svg>
