<svg xmlns="http://www.w3.org/2000/svg" viewBox="0 0 384 384"><defs><linearGradient id="well" x1="0" y1="0" x2="0" y2="1"><stop offset="0" stop-color="#3873ab"/><stop offset="1" stop-color="#10375c"/></linearGradient></defs><rect x="0" y="0" width="384" height="384" fill="#fbf8ee"/><g id="plate"><circle cx="188" cy="198" r="73" fill="none" stroke="#1a3f66" stroke-width="146"/><circle cx="188" cy="198" r="116" fill="none" stroke="#eac977" stroke-width="2"/><path d="M92 198 C92 145 135 102 188 102 C241 102 284 145 284 198 C284 251 241 294 188 294 C135 294 92 251 92 198 Z" fill="url(#well)"/></g><g id="star"><path d="M159.5 134.1 L156.8 180 L118.4 205.4 L161.3 222.1 L173.5 266.5 L202.7 230.9 L248.7 232.9 L223.8 194.2 L240 151.1 L195.4 162.8 Z" fill="#eac977"/></g><text x="188" y="302" font-family="DejaVu Sans" font-size="13" font-weight="bold" text-anchor="middle" fill="#efe7d6">EST 1994</text></svg>