<svg xmlns="http://www.w3.org/2000/svg" viewBox="0 0 384 384"><rect x="0" y="0" width="384" height="384" fill="#f9f6ec"/><ellipse cx="196" cy="190" rx="148" ry="132" fill="#264a6d"/><line x1="322" y1="190" x2="318.3" y2="220.4" stroke="#d0b878" stroke-width="9"/><line x1="312.4" y1="238.2" x2="297.4" y2="264.9" stroke="#d0b878" stroke-width="9"/><line x1="285.1" y1="279.1" x2="261" y2="297.9" stroke="#d0b878" stroke-width="9"/><line x1="244.2" y1="306.4" x2="214.7" y2="314.6" stroke="#d0b878" stroke-width="9"/><line x1="196" y1="316" x2="165.6" y2="312.3" stroke="#d0b878" stroke-width="9"/><line x1="147.8" y1="306.4" x2="121.1" y2="291.4" stroke="#d0b878" stroke-width="9"/><line x1="106.9" y1="279.1" x2="88.1" y2="255" stroke="#d0b878" stroke-width="9"/><line x1="79.6" y1="238.2" x2="71.4" y2="208.7" stroke="#d0b878" stroke-width="9"/><line x1="70" y1="190" x2="73.7" y2="159.6" stroke="#d0b878" stroke-width="9"/><line x1="79.6" y1="141.8" x2="94.6" y2="115.1" stroke="#d0b878" stroke-width="9"/><line x1="106.9" y1="100.9" x2="131" y2="82.1" stroke="#d0b878" stroke-width="9"/><line x1="147.8" y1="73.6" x2="177.3" y2="65.4" stroke="#d0b878" stroke-width="9"/><line x1="196" y1="64" x2="226.4" y2="67.7" stroke="#d0b878" stroke-width="9"/><line x1="244.2" y1="73.6" x2="270.9" y2="88.6" stroke="#d0b878" stroke-width="9"/><line x1="285.1" y1="100.9" x2="303.9" y2="125" stroke="#d0b878" stroke-width="9"/><line x1="312.4" y1="141.8" x2="320.6" y2="171.3" stroke="#d0b878" stroke-width="9"/><ellipse cx="196" cy="190" rx="106" ry="94" fill="#12406e"/><path d="M196 108 L179.5 167.3 L118 164.7 L169.4 198.7 L147.8 256.3 L196 218 L244.2 256.3 L222.6 198.7 L274 164.7 L212.5 167.3 Z" fill="#c8a955"/><text x="200" y="294" font-family="DejaVu Sans" font-size="24" font-weight="bold" text-anchor="middle" fill="#faf4e6">EST 1994</text></svg>