<svg xmlns="http://www.w3.org/2000/svg" viewBox="0 0 384 384"><rect x="0" y="0" width="384" height="384" fill="#fafafa"/><g id="d1"><rect x="65" y="152" width="7" height="6" fill="#222222"/><text x="52.6" y="150.1" font-family="DejaVu Sans" font-size="12" font-weight="normal" text-anchor="middle" fill="#222222">1</text></g><g id="d2"><rect x="92.9" y="140.8" width="7" height="6" fill="#222222"/><text x="81.3" y="136.9" font-family="DejaVu Sans" font-size="12" font-weight="normal" text-anchor="middle" fill="#222222">2</text></g><g id="d3"><rect x="113.9" y="119.7" width="7" height="6" fill="#222222"/><text x="104.4" y="112.8" font-family="DejaVu Sans" font-size="12" font-weight="normal" text-anchor="middle" fill="#222222">3</text></g><g id="d4"><rect x="135.4" y="121.3" width="7" height="6" fill="#222222"/><text x="127.3" y="113.1" font-family="DejaVu Sans" font-size="12" font-weight="normal" text-anchor="middle" fill="#222222">4</text></g><g id="d5"><rect x="149.9" y="145.9" width="7" height="6" fill="#222222"/><text x="141.3" y="138.2" font-family="DejaVu Sans" font-size="12" font-weight="normal" text-anchor="middle" fill="#222222">5</text></g><g id="d6"><rect x="160" y="172.2" width="7" height="6" fill="#222222"/><text x="148.9" y="167.3" font-family="DejaVu Sans" font-size="12" font-weight="normal" text-anchor="middle" fill="#222222">6</text></g><g id="d7"><rect x="187.4" y="184.6" width="7" height="6" fill="#222222"/><text x="181.8" y="174.8" font-family="DejaVu Sans" font-size="12" font-weight="normal" text-anchor="middle" fill="#222222">7</text></g><g id="d8"><rect x="216.2" y="192.2" width="7" height="6" fill="#222222"/><text x="229.2" y="194.7" font-family="DejaVu Sans" font-size="12" font-weight="normal" text-anchor="middle" fill="#222222">8</text></g><g id="d9"><rect x="245.7" y="197.8" width="7" height="6" fill="#222222"/><text x="258.6" y="201.3" font-family="DejaVu Sans" font-size="12" font-weight="normal" text-anchor="middle" fill="#222222">9</text></g><g id="d10"><rect x="274" y="187.7" width="7" height="6" fill="#222222"/><text x="286.9" y="189.1" font-family="DejaVu Sans" font-size="12" font-weight="normal" text-anchor="middle" fill="#222222">10</text></g><g id="d11"><rect x="302" y="178.8" width="7" height="6" fill="#222222"/><text x="314.9" y="179.4" font-family="DejaVu Sans" font-size="12" font-weight="normal" text-anchor="middle" fill="#222222">11</text></g><g id="d12"><rect x="324.9" y="198.1" width="7" height="6" fill="#222222"/><text x="337.9" y="200.7" font-family="DejaVu Sans" font-size="12" font-weight="normal" text-anchor="middle" fill="#222222">12</text></g><g id="d13"><rect x="298.4" y="212.1" width="7" height="6" fill="#222222"/><text x="311.1" y="216.6" font-family="DejaVu Sans" font-size="12" font-weight="normal" text-anchor="middle" fill="#222222">13</text></g><g id="d14"><rect x="276.8" y="232.4" width="7" height="6" fill="#222222"/><text x="288.5" y="240" font-family="DejaVu Sans" font-size="12" font-weight="normal" text-anchor="middle" fill="#222222">14</text></g><g id="d15"><rect x="253.5" y="249.5" width="7" height="6" fill="#222222"/><text x="263" y="260.3" font-family="DejaVu Sans" font-size="12" font-weight="normal" text-anchor="middle" fill="#222222">15</text></g><g id="d16"><rect x="224.7" y="258.1" width="7" height="6" fill="#222222"/><text x="230.6" y="271.7" font-family="DejaVu Sans" font-size="12" font-weight="normal" text-anchor="middle" fill="#222222">16</text></g><g id="d17"><rect x="196.3" y="260.3" width="7" height="6" fill="#222222"/><text x="197.3" y="275.2" font-family="DejaVu Sans" font-size="12" font-weight="normal" text-anchor="middle" fill="#222222">17</text></g><g id="d18"><rect x="168.7" y="248.4" width="7" height="6" fill="#222222"/><text x="164" y="262.6" font-family="DejaVu Sans" font-size="12" font-weight="normal" text-anchor="middle" fill="#222222">18</text></g><g id="d19"><rect x="154" y="223.9" width="7" height="6" fill="#222222"/><text x="144.2" y="234.5" font-family="DejaVu Sans" font-size="12" font-weight="normal" text-anchor="middle" fill="#222222">19</text></g><g id="d20"><rect x="140.7" y="197.3" width="7" height="6" fill="#222222"/><text x="127.8" y="200.8" font-family="DejaVu Sans" font-size="12" font-weight="normal" text-anchor="middle" fill="#222222">20</text></g><g id="d21"><rect x="119.6" y="176.1" width="7" height="6" fill="#222222"/><text x="106.9" y="175.4" font-family="DejaVu Sans" font-size="12" font-weight="normal" text-anchor="middle" fill="#222222">21</text></g><g id="d22"><rect x="93.5" y="161.4" width="7" height="6" fill="#222222"/><text x="81" y="159.6" font-family="DejaVu Sans" font-size="12" font-weight="normal" text-anchor="middle" fill="#222222">22</text></g><rect x="148" y="123" width="7" height="6" fill="#222222"/></svg>